#N canvas 1194 46 678 683 10;
#X obj 104 1714 /, f 7;
#X obj 143 1691 expr log10(2);
#X msg 104 1690 1200;
#X obj 104 1666 t b b, f 7;
#X obj 77 1738 /, f 5;
#X obj 77 1642 t f b;
#X obj 77 1762 expr pow(10 \, $f1);
#X floatatom 77 1786 10 0 0 0 r: - -;
#X obj 80 1589 hsl 128 15 -1200 1200 0 0 empty empty empty -2 -8 0
10 -262144 -1 -1 6350 1;
#X floatatom 87 1612 10 0 0 0 - - -;
#X msg 77 1833 440;
#X obj 116 1833 expr pow($f1 \, 1);
#X obj 77 1809 t b f, f 7;
#X obj 77 1857 *, f 7;
#X floatatom 77 1881 10 0 0 0 - - -;
#X obj 97 1914 ftom;
#X obj 97 1938 expr round($f1);
#X symbolatom 97 1986 10 0 0 0 - - -;
#N canvas 0 22 512 380 mton 0;
#X obj 22 109 mod 12;
#X obj 382 95 t f f;
#X obj 409 136 / 12;
#X obj 409 160 int;
#X obj 409 184 t b f;
#X obj 409 232 pack s f;
#X msg 409 256 symbol \$1\$2;
#X msg 22 218 C;
#X msg 49 218 C#;
#X msg 77 218 D;
#X msg 133 218 E;
#X msg 160 218 F;
#X msg 216 218 G;
#X msg 271 218 A;
#X msg 327 218 B;
#X obj 22 174 sel 0 1 2 3 4 5 6 7 8 9 10 11, f 56;
#X obj 382 31 inlet;
#X text 370 15 MIDI-VALUE;
#X obj 409 320 outlet;
#X text 400 336 NOTE-NAME;
#X text 19 52 From prhm.i Instagram. February 23 \, 2019;
#X text 20 42 MIDI to name converter;
#X msg 105 218 D#;
#X msg 188 218 F#;
#X msg 244 218 G#;
#X msg 299 218 A#;
#X obj 454 208 - 1;
#X connect 0 0 15 0;
#X connect 1 0 0 0;
#X connect 1 1 2 0;
#X connect 2 0 3 0;
#X connect 3 0 4 0;
#X connect 4 0 5 0;
#X connect 4 1 26 0;
#X connect 5 0 6 0;
#X connect 6 0 18 0;
#X connect 7 0 5 0;
#X connect 8 0 5 0;
#X connect 9 0 5 0;
#X connect 10 0 5 0;
#X connect 11 0 5 0;
#X connect 12 0 5 0;
#X connect 13 0 5 0;
#X connect 14 0 5 0;
#X connect 15 0 7 0;
#X connect 15 1 8 0;
#X connect 15 2 9 0;
#X connect 15 3 22 0;
#X connect 15 4 10 0;
#X connect 15 5 11 0;
#X connect 15 6 23 0;
#X connect 15 7 12 0;
#X connect 15 8 24 0;
#X connect 15 9 13 0;
#X connect 15 10 25 0;
#X connect 15 11 14 0;
#X connect 16 0 1 0;
#X connect 22 0 5 0;
#X connect 23 0 5 0;
#X connect 24 0 5 0;
#X connect 25 0 5 0;
#X connect 26 0 5 1;
#X restore 97 1962 pd mton;
#X msg 77 1517 0;
#X msg 117 1565 -700;
#X msg 97 1541 500;
#X obj 17 73 cnv 15 382 60 empty empty empty 20 12 0 14 -259674 -66577
0;
#X obj 17 647 cnv 15 382 40 empty empty empty 20 12 0 14 -106484 -66577
0;
#X obj 17 17 cnv 15 382 25 empty empty empty 20 12 0 14 -261313 -66577
0;
#X text 25 22 Section 3.4: The Cent Scale;
#X text 25 78 Where the equal-tempered chromatic scale divides the
octave into 12 degrees \, the cent scale divides the octave into 1200
degrees \, supplying 100 times the pitch resolution of the equal-tempered
chromatic scale.;
#X obj 57 197 / 12;
#X msg 57 173 1;
#X floatatom 57 245 10 0 0 0 - - -;
#X text 25 138 The size of the tempered semitone can be expressed as
the ratio:;
#X msg 57 380 440;
#X obj 57 452 *, f 7;
#X floatatom 57 476 10 0 0 1 Hz. - -;
#X obj 96 428 expr pow(2 \, $f1);
#X obj 96 404 / 12;
#X msg 96 380 1;
#X obj 57 356 t b b, f 7;
#X obj 57 333 bng 15 250 50 0 empty empty empty 17 7 0 10 -262144 -1
-1;
#X text 25 598 As a result we obtain the pitch of one semitone above
our reference frequency.;
#X text 29 381 f(R);
#X text 25 288 We can prove that by multiplying a reference frequency
f(R) times the ratio of a tempred semitone.;
#X obj 67 499 ftom;
#X obj 67 523 expr round($f1);
#X symbolatom 67 571 10 0 0 0 - - -;
#N canvas 0 22 512 380 mton 0;
#X obj 22 109 mod 12;
#X obj 382 95 t f f;
#X obj 409 136 / 12;
#X obj 409 160 int;
#X obj 409 184 t b f;
#X obj 409 232 pack s f;
#X msg 409 256 symbol \$1\$2;
#X msg 22 218 C;
#X msg 49 218 C#;
#X msg 77 218 D;
#X msg 133 218 E;
#X msg 160 218 F;
#X msg 216 218 G;
#X msg 271 218 A;
#X msg 327 218 B;
#X obj 22 174 sel 0 1 2 3 4 5 6 7 8 9 10 11, f 56;
#X obj 382 31 inlet;
#X text 370 15 MIDI-VALUE;
#X obj 409 320 outlet;
#X text 400 336 NOTE-NAME;
#X text 19 52 From prhm.i Instagram. February 23 \, 2019;
#X text 20 42 MIDI to name converter;
#X msg 105 218 D#;
#X msg 188 218 F#;
#X msg 244 218 G#;
#X msg 299 218 A#;
#X obj 454 208 - 1;
#X connect 0 0 15 0;
#X connect 1 0 0 0;
#X connect 1 1 2 0;
#X connect 2 0 3 0;
#X connect 3 0 4 0;
#X connect 4 0 5 0;
#X connect 4 1 26 0;
#X connect 5 0 6 0;
#X connect 6 0 18 0;
#X connect 7 0 5 0;
#X connect 8 0 5 0;
#X connect 9 0 5 0;
#X connect 10 0 5 0;
#X connect 11 0 5 0;
#X connect 12 0 5 0;
#X connect 13 0 5 0;
#X connect 14 0 5 0;
#X connect 15 0 7 0;
#X connect 15 1 8 0;
#X connect 15 2 9 0;
#X connect 15 3 22 0;
#X connect 15 4 10 0;
#X connect 15 5 11 0;
#X connect 15 6 23 0;
#X connect 15 7 12 0;
#X connect 15 8 24 0;
#X connect 15 9 13 0;
#X connect 15 10 25 0;
#X connect 15 11 14 0;
#X connect 16 0 1 0;
#X connect 22 0 5 0;
#X connect 23 0 5 0;
#X connect 24 0 5 0;
#X connect 25 0 5 0;
#X connect 26 0 5 1;
#X restore 67 547 pd mton;
#X text 25 652 Given the equation expressed above \, we can define
the interval of 1 cent as:;
#X obj 57 755 expr pow(2 \, $f1);
#X msg 57 707 1;
#X floatatom 57 779 10 0 0 0 - - -;
#X obj 57 731 / 1200;
#X obj 17 817 cnv 15 382 40 empty empty empty 20 12 0 14 -259674 -66577
0;
#X obj 77 969 /, f 18;
#X obj 77 921 t b b, f 18;
#X obj 77 898 bng 15 250 50 0 empty empty empty 17 7 0 10 -262144 -1
-1;
#X floatatom 77 1017 10 0 0 0 c: - -;
#X obj 182 945 expr log10(2);
#X obj 77 945 expr log10(1.5);
#X obj 77 993 * 1200, f 7;
#X text 25 946 log10(r);
#X text 25 872 For example \, consider 3/2 \, a perfect fifth. Then
we have:;
#X text 25 1102 The tempered fifth is exactly 700 cents. By the equation
above \, the just fifth is 701.955 cents. So the tempered fifth is
almost 2 cents flat of a perfect fifth.;
#X obj 97 1040 - 700;
#X floatatom 97 1064 10 0 0 0 - - -;
#X obj 17 1157 cnv 15 382 40 empty empty empty 20 12 0 14 -259674 -66577
0;
#X text 25 1162 To go the other direction from interval in cent to
a ratio \,;
#X text 25 822 To measure the cent size c of an interval in ratio r
\,;
#X text 25 835 c = 1200 * (log10(r)/log10(2));
#X obj 104 1343 /, f 7;
#X obj 143 1320 expr log10(2);
#X msg 104 1319 1200;
#X obj 104 1295 t b b, f 7;
#X obj 77 1367 /, f 5;
#X obj 77 1271 t f b;
#X obj 77 1391 expr pow(10 \, $f1);
#X floatatom 77 1415 5 0 0 0 r: - -;
#X msg 77 1247 1200;
#X text 25 1212 If c = 1200 \, then r = 2/1;
#X text 61 1247 c:;
#X text 25 1175 r = 10^(c/(1200/log10(2)));
#X obj 17 1457 cnv 15 382 40 empty empty empty 20 12 0 14 -106484 -66577
0;
#X text 25 1462 As a result \, we can fine tune any reference frequency
with the provided resolution of the cent scale:;
#X text 106 1517 f(R);
#X text 126 1541 P4 above;
#X text 152 1565 P5 below;
#X text 49 1834 f(R);
#X text 25 2059 This patch is based on some content of Musimathics
volume 1 by Gareth Loy. The purpose of it is to demonstrate the equations
shown in its pages and to allow any user of Pd to reach a deeper understanding
on the mathemathics behind music. I do not claim the contents of Musimathics
volume 1 or volume 2 as mine. If you are struggling on the topic I
recommend you to buy the books \, as they explain more than I can show
you here. Thanks Gareth Loy for such amazing books.;
#X text 25 2159 Happy patching!;
#X text 15 2034 --------;
#X text 15 2194 --------;
#X text 265 2179 Isaac Medina \, 2020;
#X obj 57 221 expr pow(2 \, $f1);
#X connect 0 0 4 1;
#X connect 1 0 0 1;
#X connect 2 0 0 0;
#X connect 3 0 2 0;
#X connect 3 1 1 0;
#X connect 4 0 6 0;
#X connect 5 0 4 0;
#X connect 5 1 3 0;
#X connect 6 0 7 0;
#X connect 7 0 12 0;
#X connect 8 0 5 0;
#X connect 8 0 9 0;
#X connect 10 0 13 0;
#X connect 11 0 13 1;
#X connect 12 0 10 0;
#X connect 12 1 11 0;
#X connect 13 0 14 0;
#X connect 14 0 15 0;
#X connect 15 0 16 0;
#X connect 16 0 18 0;
#X connect 18 0 17 0;
#X connect 19 0 8 0;
#X connect 20 0 8 0;
#X connect 21 0 8 0;
#X connect 27 0 91 0;
#X connect 28 0 27 0;
#X connect 31 0 32 0;
#X connect 32 0 33 0;
#X connect 33 0 42 0;
#X connect 34 0 32 1;
#X connect 35 0 34 0;
#X connect 36 0 35 0;
#X connect 37 0 31 0;
#X connect 37 1 36 0;
#X connect 38 0 37 0;
#X connect 42 0 43 0;
#X connect 43 0 45 0;
#X connect 45 0 44 0;
#X connect 47 0 49 0;
#X connect 48 0 50 0;
#X connect 50 0 47 0;
#X connect 52 0 58 0;
#X connect 53 0 57 0;
#X connect 53 1 56 0;
#X connect 54 0 53 0;
#X connect 55 0 62 0;
#X connect 56 0 52 1;
#X connect 57 0 52 0;
#X connect 58 0 55 0;
#X connect 62 0 63 0;
#X connect 68 0 72 1;
#X connect 69 0 68 1;
#X connect 70 0 68 0;
#X connect 71 0 70 0;
#X connect 71 1 69 0;
#X connect 72 0 74 0;
#X connect 73 0 72 0;
#X connect 73 1 71 0;
#X connect 74 0 75 0;
#X connect 76 0 73 0;
#X connect 91 0 29 0;
