#N canvas 86 23 693 667 10;
#X obj 47 60 hradio 15 1 0 12 empty empty k_(interval) 0 -8 0 10 -262144
-1 -1 0;
#X floatatom 67 85 5 0 0 0 - - -;
#X obj 47 165 expr $f1 * pow(2 \, $f2/12);
#X text 275 94 f(k) = f(R) * 2^k/12;
#X text 275 124 For example \, the pitch one semitone above f(R) =
440 is:;
#X obj 47 111 t b f, f 25;
#X msg 47 138 440;
#X floatatom 47 192 10 0 0 0 - - -;
#X text 275 44 For some reference frequency f(R) \, we obtain the frequency
f(k) of any equal-tempered interval k (0 \, 1 \, ... \, 11) within
the first octave by computing:;
#X text 19 138 f(R);
#X text 275 154 f1 = 440 * 2^(1/12) ~= 466.16 Hz.;
#X obj 107 241 expr pow(2 \, $f1/12)/1;
#X floatatom 107 268 10 0 0 0 - - -;
#X text 275 201 The size of the tempered semitone itself can be expressed
as the ratio:;
#X text 275 241 (2^(1/12))/1 = (12√2)/1 ~= 1.05946;
#X text 275 335 A slight modification of the equation f(k) = f(R) *
2^k/12 enables us to create equal-tempered intervals outside of an
octave. In this version:;
#X text 275 415 Where f(k \, v) is the frequency of equal-tempered
interval k in octave v. The values of k are the integers between 0
and 11 \, and the value of v is any integer. Note that the octaves
that v selects are relative to the reference pitch f(R). That is \,
v = 0 selects the same octave as f(R) \, while v > 0 selects octaves
above f(R) and v < 0 selects octaves below f(R).;
#X msg 47 424 440;
#X floatatom 47 478 10 0 0 0 - - -;
#X obj 47 451 expr $f1 * pow(2 \, $f2+$f3/12);
#X obj 47 342 hradio 15 1 0 12 empty empty k_(interval) 0 -8 0 10 -262144
-1 -1 0;
#X obj 47 387 t b b f, f 29;
#X text 119 424 v;
#X text 19 424 f(R);
#X msg 132 424 -1;
#X floatatom 57 367 5 0 0 0 - - -;
#X text 275 660 f(k \, v) = f(R) * 2^((v-4)+k/12);
#X text 275 385 f(k \, v) = f(R) * 2^(v+k/12);
#X text 275 690 For example \, given f(R) = 440 Hz \, the frequency
of the pitch A4 is 440 * 2^((4-4)+0/12) \, and the pitch an octave
and a semitone above Bb5 \, and its frequency is 440 * 2^((5-4)+1/12).
;
#X obj 47 726 expr $f1 * pow(2 \, ($f2-4)+$f3/12);
#X floatatom 47 753 10 0 0 0 - - -;
#X msg 47 699 440;
#X obj 47 557 hradio 15 1 0 12 empty empty k_(interval) 0 -8 0 10 -262144
-1 -1 3;
#X text 19 699 f(R);
#X floatatom 77 612 5 0 0 0 - - -;
#X text 265 176 --------;
#X text 265 290 --------;
#X text 265 515 --------;
#X text 265 754 --------;
#X obj 117 627 hradio 15 1 0 9 empty empty v_(octave) 0 -8 0 10 -262144
-1 -1 4;
#X obj 47 662 t b f;
#X obj 117 662 t b f;
#X floatatom 167 652 5 0 0 0 - - -;
#X text 275 24 Section 3.1: Equal Tempered intervals.;
#X text 275 315 Section 3.2: Equal-Tempered Scale.;
#X text 275 779 Section 3.2.1: Constructing an Equal-Tempered Scale.
;
#X text 275 799 Choosing the Reference Frequency. Piano keys are named
by combining their pitch class and their octave. The octaves start
at 0 at the bottom of the keyboard \, and the lowest pitch is caled
A0. Counting octaves up from A0 \, middle C corresponds to C4. By convention
\, we use A440 as the reference and assign it to the piano key A4.
;
#X text 275 889 The Reference Octave. Now we must establlish a reference
octave. Here there is a small difficulty. If the first pitch class
in an octave were named A \, the first letter in the alphabet \, we
could use the A440 reference as both the pitch A4 and the pitch of
the start of each octave. Nut historically \, new octaves begin with
the pitch class C. Why the pitch class A was not chosen for this honor
is a mystery shrouded in an enigma \, but we're stuck with it.;
#X text 275 999 ___The solution is to use the equation f(k \, v) =
f(R) * 2^(v+k/12) to compute the frequency based on the pitch of A4.
Then we can use C4 as the reference frequency to deduce all the rest
of the frequencies of the equal-tempered scale.;
#X obj 47 829 bng 15 250 50 0 empty empty empty 17 7 0 10 -262144 -1
-1;
#X obj 47 881 expr 440 * pow(2 \, -1);
#X floatatom 47 962 10 0 0 0 - - -;
#X msg 132 908 0;
#X msg 218 908 3;
#X obj 47 935 expr $f1 * pow(2 \, $f2+$f3/12);
#X obj 47 854 t b b b, f 29;
#X floatatom 57 908 10 0 0 0 - - -;
#X text 275 1055 ___We can figure out the frequency of middle C this
way: if A4 is 440 Hz \, then by the equation f(x) = f(R) * 2^x \, A3
will be 220 Hz. Middle C is three semitones above A3 on the piano.
So by f(k \, v) = f(R) * 2^(v+k/12) \, the frequency of middle C is:
;
#X text 275 1135 C4 = (440 * 2^(3/12))/2;
#X floatatom 47 1161 10 0 0 0 - - -;
#X obj 47 1029 bng 15 250 50 0 empty empty empty 17 7 0 10 -262144
-1 -1;
#X obj 47 1081 / 12;
#X floatatom 67 1108 5 0 0 0 - - -;
#X msg 47 1054 3;
#X obj 47 1134 expr 440 * pow(2 \, $f1) / 2;
#X floatatom 72 1451 10 0 0 0 - - -;
#X obj 62 1399 bng 15 250 50 0 empty empty empty 17 7 0 10 -262144
-1 -1;
#X obj 62 1424 expr 440 * pow(2 \, 0.25) / 2;
#X obj 47 1478 expr $f1 * pow(2 \, ($f2-4)+$f3/12);
#X floatatom 47 1505 10 0 0 0 - - -;
#X obj 47 1270 hradio 15 1 0 12 empty empty k_(interval) 0 -8 0 10
-262144 -1 -1 0;
#X text 19 1449 f(R);
#X obj 117 1320 hradio 15 1 0 9 empty empty v_(octave) 0 -8 0 10 -262144
-1 -1 4;
#X obj 47 1345 t b f;
#X obj 117 1345 t b f;
#X floatatom 157 1345 5 0 0 0 - - -;
#X obj 62 1372 loadbang;
#X obj 47 1451 f;
#X text 30 962 C4;
#X text 30 1162 C4;
#X text 51 1284 C;
#X text 81 1284 D;
#X text 111 1284 E;
#X text 127 1284 F;
#X text 156 1284 G;
#X text 186 1284 A;
#X text 216 1284 B;
#X text 275 1165 To make the following equations a little simpler \,
let's define R = C4 = 261.6 Hz. The purpose of introducing R is to
let it stand for the reference frequency no matter what actual frequency
it is. For the following examples \, we set the reference R to C4 \,
but it could just as easily be any other frequency \, and we'll choose
different values for R when we study other scales.;
#X text 51 574 A;
#X text 81 574 B;
#X text 96 574 C;
#X text 125 574 D;
#X text 154 574 E;
#X text 172 574 F;
#X text 201 574 G;
#X text 178 268 frequency ratio;
#X text 275 540 This is unfortunately at odds with the common Western
practice of naming octaves after the order of their appearance on a
standard 88-key piano keyboard. In this practice \, A440 is in the
fourth piano octave and hence can also be called A4. C4 is called middle
C in this system. The 88-key keyboard ranges from A0 to C8. All we
have to do to adopt this practice is to subtract 4 from the exponent
of the equation f(k \, v) = f(R) * 2^(v+k/12):;
#X obj 147 1216 loadbang;
#X msg 147 1243 4;
#X text 515 1550 Isaac Medina \, 2019;
#X text 275 1420 This patch is based on some content of Musimathics
volume 1 by Gareth Loy. The purpose of it is to demonstrate the equations
shown in its pages and to allow any user of Pd to reach a deeper understanding
on the mathemathics behind music. I do not claim the contents of Musimathics
volume 1 or volume 2 as mine. If you are struggling on the topic I
recommend you to buy the books \, as they explain more than I can show
you here. Thanks Gareth Loy for such amazing books.;
#X text 275 1530 Happy patching!;
#X text 265 1395 --------;
#X connect 0 0 1 0;
#X connect 0 0 5 0;
#X connect 0 0 11 0;
#X connect 2 0 7 0;
#X connect 5 0 6 0;
#X connect 5 1 2 1;
#X connect 6 0 2 0;
#X connect 11 0 12 0;
#X connect 17 0 19 0;
#X connect 19 0 18 0;
#X connect 20 0 21 0;
#X connect 20 0 25 0;
#X connect 21 0 17 0;
#X connect 21 1 24 0;
#X connect 21 2 19 2;
#X connect 24 0 19 1;
#X connect 29 0 30 0;
#X connect 31 0 29 0;
#X connect 32 0 34 0;
#X connect 32 0 40 0;
#X connect 39 0 41 0;
#X connect 39 0 42 0;
#X connect 40 0 31 0;
#X connect 40 1 29 2;
#X connect 41 0 31 0;
#X connect 41 1 29 1;
#X connect 49 0 55 0;
#X connect 50 0 54 0;
#X connect 50 0 56 0;
#X connect 52 0 54 1;
#X connect 53 0 54 2;
#X connect 54 0 51 0;
#X connect 55 0 50 0;
#X connect 55 1 52 0;
#X connect 55 2 53 0;
#X connect 60 0 63 0;
#X connect 61 0 62 0;
#X connect 61 0 64 0;
#X connect 63 0 61 0;
#X connect 64 0 59 0;
#X connect 66 0 67 0;
#X connect 67 0 65 0;
#X connect 67 0 77 1;
#X connect 68 0 69 0;
#X connect 70 0 73 0;
#X connect 72 0 74 0;
#X connect 72 0 75 0;
#X connect 73 0 77 0;
#X connect 73 1 68 2;
#X connect 74 0 77 0;
#X connect 74 1 68 1;
#X connect 76 0 66 0;
#X connect 77 0 68 0;
#X connect 97 0 98 0;
#X connect 98 0 72 0;
