#N canvas 113 15 283 196 10;
#N canvas 326 102 165 425 list-idx 0;
#X obj 28 34 inlet;
#X obj 56 368 outlet;
#X obj 70 34 inlet;
#X obj 56 304 list split 1;
#X obj 97 149 < 0;
#X obj 28 267 list split;
#X obj 28 193 list prepend;
#X obj 70 98 t b f;
#X obj 97 122 t f f;
#X obj 28 220 route 0;
#X text 31 14 LIST;
#X text 65 14 INDEX(n);
#X text 38 388 CHOSEN NUMBER;
#X obj 28 149 list;
#X connect 0 0 13 1;
#X connect 2 0 7 0;
#X connect 3 0 1 0;
#X connect 4 0 6 1;
#X connect 5 1 3 0;
#X connect 6 0 9 0;
#X connect 7 0 13 0;
#X connect 7 1 8 0;
#X connect 8 0 4 0;
#X connect 8 1 5 1;
#X connect 9 0 5 0;
#X connect 13 0 6 0;
#X restore 31 73 pd list-idx;
#X msg 31 49 61 63 64 66 68 69 71 73;
#X obj 94 25 hradio 15 1 0 8 empty empty empty 0 -8 0 10 -262144 -1
-1 5;
#X obj 31 25 loadbang;
#X obj 31 97 - 24;
#X text 177 49 C# aeolian;
#X symbolatom 31 145 10 0 0 0 - - -;
#N canvas 0 22 512 380 mton 0;
#X obj 22 109 mod 12;
#X obj 382 95 t f f;
#X obj 409 136 / 12;
#X obj 409 160 int;
#X obj 409 184 t b f;
#X obj 409 232 pack s f;
#X msg 409 256 symbol \$1\$2;
#X msg 22 218 C;
#X msg 49 218 C#;
#X msg 77 218 D;
#X msg 133 218 E;
#X msg 160 218 F;
#X msg 216 218 G;
#X msg 271 218 A;
#X msg 327 218 B;
#X obj 22 174 sel 0 1 2 3 4 5 6 7 8 9 10 11, f 56;
#X obj 382 31 inlet;
#X text 370 15 MIDI-VALUE;
#X obj 409 320 outlet;
#X text 400 336 NOTE-NAME;
#X text 19 52 From prhm.i Instagram. February 23 \, 2019;
#X text 20 42 MIDI to name converter;
#X msg 105 218 D#;
#X msg 188 218 F#;
#X msg 244 218 G#;
#X msg 299 218 A#;
#X obj 454 208 - 1;
#X connect 0 0 15 0;
#X connect 1 0 0 0;
#X connect 1 1 2 0;
#X connect 2 0 3 0;
#X connect 3 0 4 0;
#X connect 4 0 5 0;
#X connect 4 1 26 0;
#X connect 5 0 6 0;
#X connect 6 0 18 0;
#X connect 7 0 5 0;
#X connect 8 0 5 0;
#X connect 9 0 5 0;
#X connect 10 0 5 0;
#X connect 11 0 5 0;
#X connect 12 0 5 0;
#X connect 13 0 5 0;
#X connect 14 0 5 0;
#X connect 15 0 7 0;
#X connect 15 1 8 0;
#X connect 15 2 9 0;
#X connect 15 3 22 0;
#X connect 15 4 10 0;
#X connect 15 5 11 0;
#X connect 15 6 23 0;
#X connect 15 7 12 0;
#X connect 15 8 24 0;
#X connect 15 9 13 0;
#X connect 15 10 25 0;
#X connect 15 11 14 0;
#X connect 16 0 1 0;
#X connect 22 0 5 0;
#X connect 23 0 5 0;
#X connect 24 0 5 0;
#X connect 25 0 5 0;
#X connect 26 0 5 1;
#X restore 31 121 pd mton;
#X obj 111 121 mtof;
#X floatatom 111 145 5 0 0 0 - - -;
#X msg 111 97 69;
#X connect 0 0 4 0;
#X connect 1 0 0 0;
#X connect 2 0 0 1;
#X connect 3 0 1 0;
#X connect 4 0 7 0;
#X connect 7 0 6 0;
#X connect 8 0 9 0;
#X connect 10 0 8 0;
#X connect 10 0 7 0;
