#N canvas 0 23 833 389 12;
#X obj 106 213 list;
#X obj 106 237 list split;
#X obj 139 261 list split 1;
#X msg 131 79 34 89 56 78;
#X floatatom 163 142 5 0 0 0 - - -;
#X obj 163 189 t b f;
#X obj 209 127 list length;
#X obj 163 165 %, f 7;
#X obj 131 103 t a a;
#X obj 396 213 list;
#X obj 396 237 list split;
#X obj 429 261 list split 1;
#X msg 421 79 34 89 56 78;
#X floatatom 453 142 5 0 0 0 - - -;
#X obj 453 189 t b f;
#X obj 499 127 list length;
#X obj 453 165 %, f 7;
#X obj 421 103 t a a;
#X floatatom 429 285 5 0 0 0 - - -;
#X floatatom 139 285 5 0 0 0 - - -;
#X obj 396 335 list append, f 18;
#X obj 429 308 print item-is;
#X floatatom 549 151 5 0 0 0 - - -;
#X obj 549 174 sel 0, f 8;
#X msg 549 208 empty;
#X obj 602 208 f;
#X obj 549 242 print remaining;
#X obj 687 174 del 10;
#X text 689 155 reset;
#X obj 331 53 bng 15 250 50 0 empty empty empty 17 7 0 10 -262144 -1
-1;
#X obj 331 73 random 100;
#X text 72 20 Sampling with replacement;
#X text 372 20 Sampling without replacement;
#X obj 41 53 bng 15 250 50 0 empty empty empty 17 7 0 10 -262144 -1
-1;
#X obj 41 73 random 100;
#X msg 687 198 1;
#X obj 687 222 moses, f 10;
#X obj 754 178 hradio 15 1 0 2 empty empty empty 0 -8 0 10 -262144
-1 -1 1;
#X obj 754 198 + 1;
#X text 748 155 off/on;
#X connect 0 0 1 0;
#X connect 1 1 2 0;
#X connect 2 0 19 0;
#X connect 3 0 8 0;
#X connect 4 0 7 0;
#X connect 5 0 0 0;
#X connect 5 1 1 1;
#X connect 6 0 7 1;
#X connect 7 0 5 0;
#X connect 8 0 0 1;
#X connect 8 1 6 0;
#X connect 9 0 10 0;
#X connect 10 0 20 0;
#X connect 10 1 11 0;
#X connect 11 0 18 0;
#X connect 11 1 20 1;
#X connect 12 0 17 0;
#X connect 13 0 16 0;
#X connect 14 0 9 0;
#X connect 14 1 10 1;
#X connect 15 0 16 1;
#X connect 15 0 22 0;
#X connect 16 0 14 0;
#X connect 17 0 9 1;
#X connect 17 1 15 0;
#X connect 18 0 21 0;
#X connect 20 0 17 0;
#X connect 22 0 23 0;
#X connect 22 0 25 1;
#X connect 23 0 24 0;
#X connect 23 0 27 0;
#X connect 23 1 25 0;
#X connect 24 0 26 0;
#X connect 25 0 26 0;
#X connect 27 0 35 0;
#X connect 29 0 30 0;
#X connect 30 0 13 0;
#X connect 33 0 34 0;
#X connect 34 0 4 0;
#X connect 35 0 36 0;
#X connect 36 0 12 0;
#X connect 37 0 38 0;
#X connect 38 0 36 1;
