#N canvas 56 51 992 626 12;
#X obj 264 123 until;
#X obj 264 147 f;
#X obj 304 147 + 1;
#X msg 264 27 bob andrea manuel polly khalid sam danielle jacob;
#X obj 264 75 list length;
#X obj 264 99 t f f, f 11;
#X obj 264 171 %, f 11;
#X msg 394 267 clear;
#X obj 264 267 list;
#X obj 394 291 text define guests;
#X obj 264 291 text set guests;
#X obj 43 533 list store;
#X msg 43 509 get \$1 1;
#X obj 264 243 list store;
#X msg 264 219 get \$1 1;
#X obj 264 195 t f f, f 11;
#X obj 264 413 until;
#X obj 264 437 f;
#X obj 304 437 + 1;
#X obj 264 365 list length;
#X obj 264 389 t f f, f 11;
#X obj 264 461 %, f 11;
#X msg 424 557 clear;
#X obj 264 557 list;
#X obj 264 533 list store;
#X msg 264 509 get \$1 1;
#X obj 264 485 t f f, f 11;
#X msg 264 341 andrea manuel khalid;
#X obj 424 581 text define checked_out;
#X obj 264 581 text set checked_out;
#X obj 43 557 text search guests;
#X obj 43 581 text delete guests;
#X obj 43 363 tgl 15 0 empty empty remove_checked_out_from_guests 17
7 0 10 -262144 -1 -1 0 1;
#X obj 43 411 f;
#X obj 83 411 + 1;
#X obj 43 435 %, f 11;
#X obj 141 455 - 1;
#X obj 123 479 sel;
#X obj 123 503 bang;
#X floatatom 63 479 5 0 0 0 - - -;
#X text 211 27 guests:;
#X text 176 341 checked_out:;
#X obj 43 387 metro 250;
#X msg 474 267 click;
#X obj 474 242 loadbang;
#X obj 43 326 bng 15 250 50 0 empty empty load 17 7 0 10 -262144 -1
-1;
#X msg 624 171 andrea;
#X obj 624 195 list;
#X obj 624 243 text search guests;
#X obj 624 267 != -1;
#X msg 684 171 bob;
#X obj 803 363 list append is here;
#X obj 803 387 list trim;
#X obj 803 411 print;
#X obj 624 387 list trim;
#X obj 624 415 print;
#X obj 624 363 list append is not here;
#X obj 624 291 sel 0, f 26;
#X obj 624 339 list, f 9;
#X obj 803 339 list, f 9;
#X obj 624 219 t l l, f 26;
#X obj 803 315 bang;
#X text 714 171 is here?;
#X obj 264 51 t a a;
#X text 626 567 two lists converted to text to find coincidences and
remove items. Isaac Medina \, 2022, f 49;
#X connect 0 0 1 0;
#X connect 1 0 2 0;
#X connect 1 0 6 0;
#X connect 2 0 1 1;
#X connect 3 0 63 0;
#X connect 4 0 5 0;
#X connect 5 0 0 0;
#X connect 5 1 6 1;
#X connect 6 0 15 0;
#X connect 7 0 9 0;
#X connect 8 0 10 0;
#X connect 11 0 30 0;
#X connect 12 0 11 0;
#X connect 13 0 8 0;
#X connect 14 0 13 0;
#X connect 15 0 14 0;
#X connect 15 1 10 1;
#X connect 16 0 17 0;
#X connect 17 0 18 0;
#X connect 17 0 21 0;
#X connect 18 0 17 1;
#X connect 19 0 20 0;
#X connect 19 0 35 1;
#X connect 19 0 36 0;
#X connect 20 0 16 0;
#X connect 20 1 21 1;
#X connect 21 0 26 0;
#X connect 22 0 28 0;
#X connect 23 0 29 0;
#X connect 24 0 23 0;
#X connect 25 0 24 0;
#X connect 26 0 25 0;
#X connect 26 1 29 1;
#X connect 27 0 19 0;
#X connect 27 0 24 1;
#X connect 27 0 11 1;
#X connect 30 0 31 0;
#X connect 32 0 42 0;
#X connect 33 0 34 0;
#X connect 33 0 35 0;
#X connect 34 0 33 1;
#X connect 35 0 12 0;
#X connect 35 0 37 0;
#X connect 35 0 39 0;
#X connect 36 0 37 1;
#X connect 37 0 38 0;
#X connect 38 0 32 0;
#X connect 42 0 33 0;
#X connect 43 0 9 0;
#X connect 44 0 43 0;
#X connect 45 0 3 0;
#X connect 45 0 27 0;
#X connect 46 0 47 0;
#X connect 47 0 60 0;
#X connect 48 0 49 0;
#X connect 49 0 57 0;
#X connect 50 0 47 0;
#X connect 51 0 52 0;
#X connect 52 0 53 0;
#X connect 54 0 55 0;
#X connect 56 0 54 0;
#X connect 57 0 58 0;
#X connect 57 1 61 0;
#X connect 58 0 56 0;
#X connect 59 0 51 0;
#X connect 60 0 48 0;
#X connect 60 1 58 1;
#X connect 60 1 59 1;
#X connect 61 0 59 0;
#X connect 63 0 4 0;
#X connect 63 1 13 1;
